<mxfile host="app.diagrams.net" modified="2022-01-21T01:01:55.024Z" agent="5.0 (Windows NT 10.0; Win64; x64) AppleWebKit/537.36 (KHTML, like Gecko) Chrome/97.0.4692.71 Safari/537.36 Edg/97.0.1072.62" etag="zhC0XhkhuxBfzOR6uU5G" version="16.4.3" type="github">
  <diagram id="prtHgNgQTEPvFCAcTncT" name="Page-1">
    <mxGraphModel dx="1422" dy="1963" grid="1" gridSize="10" guides="1" tooltips="1" connect="1" arrows="1" fold="1" page="1" pageScale="1" pageWidth="827" pageHeight="1169" math="0" shadow="0">
      <root>
        <mxCell id="0" />
        <mxCell id="1" parent="0" />
        <mxCell id="dNxyNK7c78bLwvsdeMH5-11" value="内容运营" style="swimlane;html=1;startSize=20;horizontal=1;containerType=tree;glass=0;fillColor=#dae8fc;strokeColor=#6c8ebf;" parent="1" vertex="1">
          <mxGeometry x="20" y="20" width="930" height="500" as="geometry" />
        </mxCell>
        <UserObject label="&#xa;&#xa;&lt;span style=&quot;color: rgb(0, 0, 0); font-family: helvetica; font-size: 12px; font-style: normal; font-weight: 700; letter-spacing: normal; text-align: left; text-indent: 0px; text-transform: none; word-spacing: 0px; background-color: rgb(248, 249, 250); display: inline; float: none;&quot;&gt;%name%&lt;/span&gt;&lt;br style=&quot;color: rgb(0, 0, 0); font-family: helvetica; font-size: 12px; font-style: normal; font-weight: 700; letter-spacing: normal; text-align: left; text-indent: 0px; text-transform: none; word-spacing: 0px; background-color: rgb(248, 249, 250);&quot;&gt;&lt;i style=&quot;font-family: helvetica; font-size: 12px; font-weight: 700; letter-spacing: normal; text-align: left; text-indent: 0px; text-transform: none; word-spacing: 0px; background-color: rgb(248, 249, 250); color: gray;&quot;&gt;%position%&lt;/i&gt;&lt;br style=&quot;color: rgb(0, 0, 0); font-family: helvetica; font-size: 12px; font-style: normal; font-weight: 700; letter-spacing: normal; text-align: left; text-indent: 0px; text-transform: none; word-spacing: 0px; background-color: rgb(248, 249, 250);&quot;&gt;&lt;a href=&quot;mailto:%email%&quot; style=&quot;font-family: helvetica; font-size: 12px; font-style: normal; font-weight: 700; letter-spacing: normal; text-align: left; text-indent: 0px; text-transform: none; word-spacing: 0px; background-color: rgb(248, 249, 250);&quot;&gt;Email&lt;/a&gt;&#xa;&#xa;" name="人员待定" position="内容运营负责人" location="大金塔" email="" placeholders="1" link="" id="dNxyNK7c78bLwvsdeMH5-12">
          <mxCell style="label;image=https://cdn3.iconfinder.com/data/icons/user-avatars-1/512/users-3-128.png;whiteSpace=wrap;html=1;rounded=0;glass=0;treeMoving=1;treeFolding=1;" parent="dNxyNK7c78bLwvsdeMH5-11" vertex="1">
            <mxGeometry x="260" y="60" width="180" height="70" as="geometry" />
          </mxCell>
        </UserObject>
        <mxCell id="dNxyNK7c78bLwvsdeMH5-13" value="" style="endArrow=blockThin;endFill=1;fontSize=11;edgeStyle=elbowEdgeStyle;elbow=vertical;rounded=0;" parent="dNxyNK7c78bLwvsdeMH5-11" source="dNxyNK7c78bLwvsdeMH5-12" target="dNxyNK7c78bLwvsdeMH5-14" edge="1">
          <mxGeometry relative="1" as="geometry" />
        </mxCell>
        <UserObject label="%name%&lt;br&gt;&lt;i style=&quot;color: gray&quot;&gt;%position%&lt;/i&gt;&lt;br&gt;&lt;a href=&quot;mailto:%email%&quot;&gt;Email&lt;/a&gt;" name="法住禅林法务处" position="法住禅林运营专员" location="法住禅林" email="" placeholders="1" link="" id="dNxyNK7c78bLwvsdeMH5-14">
          <mxCell style="label;image=https://cdn3.iconfinder.com/data/icons/user-avatars-1/512/users-10-3-128.png;whiteSpace=wrap;html=1;rounded=0;glass=0;treeFolding=1;treeMoving=1;" parent="dNxyNK7c78bLwvsdeMH5-11" vertex="1">
            <mxGeometry x="40" y="180" width="180" height="80" as="geometry" />
          </mxCell>
        </UserObject>
        <mxCell id="dNxyNK7c78bLwvsdeMH5-15" value="" style="endArrow=blockThin;endFill=1;fontSize=11;edgeStyle=elbowEdgeStyle;elbow=vertical;rounded=0;" parent="dNxyNK7c78bLwvsdeMH5-11" source="dNxyNK7c78bLwvsdeMH5-12" target="dNxyNK7c78bLwvsdeMH5-16" edge="1">
          <mxGeometry relative="1" as="geometry" />
        </mxCell>
        <UserObject label="%name%&lt;br&gt;&lt;i style=&quot;color: gray&quot;&gt;%position%&lt;/i&gt;&lt;br&gt;&lt;a href=&quot;mailto:%email%&quot;&gt;Email&lt;/a&gt;" name="Kosala尊者" position="大金塔运营专员" location="大金塔" email="" placeholders="1" link="" id="dNxyNK7c78bLwvsdeMH5-16">
          <mxCell style="label;image=https://cdn3.iconfinder.com/data/icons/user-avatars-1/512/users-9-2-128.png;whiteSpace=wrap;html=1;rounded=0;glass=0;treeFolding=1;treeMoving=1;" parent="dNxyNK7c78bLwvsdeMH5-11" vertex="1">
            <mxGeometry x="260" y="180" width="180" height="80" as="geometry" />
          </mxCell>
        </UserObject>
        <mxCell id="dNxyNK7c78bLwvsdeMH5-17" value="" style="endArrow=blockThin;endFill=1;fontSize=11;edgeStyle=elbowEdgeStyle;elbow=vertical;rounded=0;" parent="dNxyNK7c78bLwvsdeMH5-11" source="dNxyNK7c78bLwvsdeMH5-12" target="dNxyNK7c78bLwvsdeMH5-18" edge="1">
          <mxGeometry relative="1" as="geometry" />
        </mxCell>
        <UserObject label="%name%&lt;br&gt;&lt;i style=&quot;color: gray&quot;&gt;%position%&lt;/i&gt;&lt;br&gt;&lt;a href=&quot;mailto:%email%&quot;&gt;Email&lt;/a&gt;" name="修喜" position="满庭禅林运营专员" location="满庭" email="" placeholders="1" link="" id="dNxyNK7c78bLwvsdeMH5-18">
          <mxCell style="label;image=https://cdn3.iconfinder.com/data/icons/user-avatars-1/512/users-2-128.png;whiteSpace=wrap;html=1;rounded=0;glass=0;" parent="dNxyNK7c78bLwvsdeMH5-11" vertex="1">
            <mxGeometry x="490" y="180" width="180" height="80" as="geometry" />
          </mxCell>
        </UserObject>
        <UserObject label="&lt;span style=&quot;font-family: &amp;#34;helvetica&amp;#34;&quot;&gt;%name%&lt;/span&gt;&lt;br style=&quot;font-family: &amp;#34;helvetica&amp;#34;&quot;&gt;&lt;i style=&quot;font-family: &amp;#34;helvetica&amp;#34; ; color: gray&quot;&gt;%position%&lt;/i&gt;&lt;br style=&quot;font-family: &amp;#34;helvetica&amp;#34;&quot;&gt;&lt;a href=&quot;mailto:%email%&quot; style=&quot;font-family: &amp;#34;helvetica&amp;#34;&quot;&gt;Email&lt;/a&gt;" name="uttama尊者" position="项目负责人" location="大金塔" email="" placeholders="1" link="" id="FHAz8kvWBEET84P1jxPl-1">
          <mxCell style="label;image=https://cdn3.iconfinder.com/data/icons/user-avatars-1/512/users-10-3-128.png;whiteSpace=wrap;html=1;rounded=0;glass=0;treeMoving=1;treeFolding=1;fillColor=#ffe6cc;strokeColor=#d79b00;" parent="1" vertex="1">
            <mxGeometry x="870" y="-240" width="180" height="90" as="geometry" />
          </mxCell>
        </UserObject>
        <mxCell id="FHAz8kvWBEET84P1jxPl-2" value="" style="endArrow=classic;html=1;rounded=0;entryX=0.5;entryY=0;entryDx=0;entryDy=0;exitX=0.5;exitY=1;exitDx=0;exitDy=0;" parent="1" source="FHAz8kvWBEET84P1jxPl-1" target="dNxyNK7c78bLwvsdeMH5-12" edge="1">
          <mxGeometry width="50" height="50" relative="1" as="geometry">
            <mxPoint x="600" y="30" as="sourcePoint" />
            <mxPoint x="650" y="-20" as="targetPoint" />
          </mxGeometry>
        </mxCell>
        <mxCell id="FHAz8kvWBEET84P1jxPl-3" value="技术运营" style="swimlane;html=1;startSize=20;horizontal=1;containerType=tree;glass=0;fillColor=#d5e8d4;strokeColor=#82b366;" parent="1" vertex="1">
          <mxGeometry x="1070" y="20" width="1090" height="500" as="geometry" />
        </mxCell>
        <UserObject label="&lt;font face=&quot;helvetica&quot;&gt;谭博文&lt;/font&gt;&lt;br style=&quot;color: rgb(0 , 0 , 0) ; font-family: &amp;#34;helvetica&amp;#34; ; font-size: 12px ; font-style: normal ; font-weight: 700 ; letter-spacing: normal ; text-align: left ; text-indent: 0px ; text-transform: none ; word-spacing: 0px ; background-color: rgb(248 , 249 , 250)&quot;&gt;&lt;i style=&quot;font-family: &amp;#34;helvetica&amp;#34; ; font-size: 12px ; font-weight: 700 ; letter-spacing: normal ; text-align: left ; text-indent: 0px ; text-transform: none ; word-spacing: 0px ; background-color: rgb(248 , 249 , 250) ; color: gray&quot;&gt;技术负责人&lt;/i&gt;&lt;br style=&quot;color: rgb(0 , 0 , 0) ; font-family: &amp;#34;helvetica&amp;#34; ; font-size: 12px ; font-style: normal ; font-weight: 700 ; letter-spacing: normal ; text-align: left ; text-indent: 0px ; text-transform: none ; word-spacing: 0px ; background-color: rgb(248 , 249 , 250)&quot;&gt;&lt;a href=&quot;mailto:&quot; style=&quot;font-family: &amp;#34;helvetica&amp;#34; ; font-size: 12px ; font-style: normal ; font-weight: 700 ; letter-spacing: normal ; text-align: left ; text-indent: 0px ; text-transform: none ; word-spacing: 0px ; background-color: rgb(248 , 249 , 250)&quot;&gt;Email&lt;/a&gt;" name="人员待定" position="内容运营总负责人" location="大金塔" email="" placeholders="1" link="" id="FHAz8kvWBEET84P1jxPl-4">
          <mxCell style="label;image=https://cdn3.iconfinder.com/data/icons/user-avatars-1/512/users-9-2-128.png;whiteSpace=wrap;html=1;rounded=0;glass=0;treeMoving=1;treeFolding=1;" parent="FHAz8kvWBEET84P1jxPl-3" vertex="1">
            <mxGeometry x="374" y="40" width="180" height="80" as="geometry" />
          </mxCell>
        </UserObject>
        <mxCell id="FHAz8kvWBEET84P1jxPl-5" value="" style="endArrow=blockThin;endFill=1;fontSize=11;edgeStyle=elbowEdgeStyle;elbow=vertical;rounded=0;" parent="FHAz8kvWBEET84P1jxPl-3" source="FHAz8kvWBEET84P1jxPl-4" target="FHAz8kvWBEET84P1jxPl-6" edge="1">
          <mxGeometry relative="1" as="geometry" />
        </mxCell>
        <UserObject label="董琳玲&lt;br&gt;&lt;font color=&quot;#808080&quot;&gt;&lt;i&gt;研发&lt;/i&gt;&lt;/font&gt;&lt;br&gt;&lt;a href=&quot;mailto:&quot;&gt;Email&lt;/a&gt;" name="法住禅林法务处" position="法住禅林运营专员" location="法住禅林" email="" placeholders="1" link="" id="FHAz8kvWBEET84P1jxPl-6">
          <mxCell style="label;image=https://cdn3.iconfinder.com/data/icons/user-avatars-1/512/users-10-3-128.png;whiteSpace=wrap;html=1;rounded=0;glass=0;treeFolding=1;treeMoving=1;" parent="FHAz8kvWBEET84P1jxPl-3" vertex="1">
            <mxGeometry x="40" y="180" width="180" height="80" as="geometry" />
          </mxCell>
        </UserObject>
        <mxCell id="FHAz8kvWBEET84P1jxPl-7" value="" style="endArrow=blockThin;endFill=1;fontSize=11;edgeStyle=elbowEdgeStyle;elbow=vertical;rounded=0;" parent="FHAz8kvWBEET84P1jxPl-3" source="FHAz8kvWBEET84P1jxPl-4" target="FHAz8kvWBEET84P1jxPl-8" edge="1">
          <mxGeometry relative="1" as="geometry" />
        </mxCell>
        <UserObject label="高翔&lt;br&gt;&lt;i style=&quot;color: gray&quot;&gt;运维&lt;/i&gt;&lt;br&gt;&lt;a href=&quot;mailto:&quot;&gt;Email&lt;/a&gt;" name="人员待定" position="大金塔运营专员" location="大金塔" email="" placeholders="1" link="" id="FHAz8kvWBEET84P1jxPl-8">
          <mxCell style="label;image=https://cdn3.iconfinder.com/data/icons/user-avatars-1/512/users-9-2-128.png;whiteSpace=wrap;html=1;rounded=0;glass=0;treeFolding=1;treeMoving=1;" parent="FHAz8kvWBEET84P1jxPl-3" vertex="1">
            <mxGeometry x="260" y="180" width="180" height="80" as="geometry" />
          </mxCell>
        </UserObject>
        <mxCell id="FHAz8kvWBEET84P1jxPl-9" value="" style="endArrow=blockThin;endFill=1;fontSize=11;edgeStyle=elbowEdgeStyle;elbow=vertical;rounded=0;" parent="FHAz8kvWBEET84P1jxPl-3" source="FHAz8kvWBEET84P1jxPl-4" target="FHAz8kvWBEET84P1jxPl-10" edge="1">
          <mxGeometry relative="1" as="geometry" />
        </mxCell>
        <UserObject label="谢晓玲&lt;br&gt;&lt;font color=&quot;#808080&quot;&gt;&lt;i&gt;研发&lt;/i&gt;&lt;/font&gt;&lt;br&gt;&lt;a href=&quot;mailto:&quot;&gt;Email&lt;/a&gt;" name="人员待定" position="满庭禅林运营专员" location="满庭" email="" placeholders="1" link="" id="FHAz8kvWBEET84P1jxPl-10">
          <mxCell style="label;image=https://cdn3.iconfinder.com/data/icons/user-avatars-1/512/users-2-128.png;whiteSpace=wrap;html=1;rounded=0;glass=0;" parent="FHAz8kvWBEET84P1jxPl-3" vertex="1">
            <mxGeometry x="490" y="180" width="180" height="80" as="geometry" />
          </mxCell>
        </UserObject>
        <mxCell id="FHAz8kvWBEET84P1jxPl-11" value="" style="endArrow=blockThin;endFill=1;fontSize=11;edgeStyle=elbowEdgeStyle;elbow=vertical;rounded=0;exitX=0.5;exitY=1;exitDx=0;exitDy=0;" parent="FHAz8kvWBEET84P1jxPl-3" source="FHAz8kvWBEET84P1jxPl-4" target="FHAz8kvWBEET84P1jxPl-12" edge="1">
          <mxGeometry relative="1" as="geometry">
            <mxPoint x="700" y="130" as="sourcePoint" />
            <Array as="points">
              <mxPoint x="750" y="150" />
            </Array>
          </mxGeometry>
        </mxCell>
        <UserObject label="方思雨&lt;br&gt;&lt;font color=&quot;#808080&quot;&gt;&lt;i&gt;助理&lt;/i&gt;&lt;/font&gt;&lt;br&gt;&lt;a href=&quot;mailto:&quot;&gt;Email&lt;/a&gt;" name="待定" position="帕隆美运营专员" location="帕隆美" email="" placeholders="1" link="" id="FHAz8kvWBEET84P1jxPl-12">
          <mxCell style="label;image=https://cdn3.iconfinder.com/data/icons/user-avatars-1/512/users-10-3-128.png;whiteSpace=wrap;html=1;rounded=0;glass=0;treeFolding=1;treeMoving=1;" parent="FHAz8kvWBEET84P1jxPl-3" vertex="1">
            <mxGeometry x="700" y="180" width="180" height="80" as="geometry" />
          </mxCell>
        </UserObject>
        <mxCell id="FHAz8kvWBEET84P1jxPl-13" value="" style="endArrow=blockThin;endFill=1;fontSize=11;edgeStyle=elbowEdgeStyle;elbow=vertical;rounded=0;" parent="FHAz8kvWBEET84P1jxPl-3" target="FHAz8kvWBEET84P1jxPl-14" edge="1">
          <mxGeometry relative="1" as="geometry">
            <mxPoint x="690" y="150" as="sourcePoint" />
          </mxGeometry>
        </mxCell>
        <UserObject label="Visuddinanda尊者&lt;br&gt;&lt;font color=&quot;#808080&quot;&gt;&lt;i&gt;顾问&lt;/i&gt;&lt;/font&gt;&lt;br&gt;&lt;a href=&quot;mailto:&quot;&gt;Email&lt;/a&gt;" name="人员待定" position="老曼娥/曼咪/云台寺/塔庄星运营专员" location="法住禅林" email="" placeholders="1" link="" id="FHAz8kvWBEET84P1jxPl-14">
          <mxCell style="label;image=https://cdn3.iconfinder.com/data/icons/user-avatars-1/512/users-9-2-128.png;whiteSpace=wrap;html=1;rounded=0;glass=0;treeFolding=1;treeMoving=1;" parent="FHAz8kvWBEET84P1jxPl-3" vertex="1">
            <mxGeometry x="590" y="300" width="200" height="80" as="geometry" />
          </mxCell>
        </UserObject>
        <UserObject label="戒喜尊者&lt;br&gt;&lt;font color=&quot;#808080&quot;&gt;&lt;i&gt;兼职研发&lt;/i&gt;&lt;/font&gt;&lt;br&gt;&lt;a href=&quot;mailto:&quot;&gt;Email&lt;/a&gt;" name="人员待定" position="老曼娥/曼咪/云台寺/塔庄星运营专员" location="法住禅林" email="" placeholders="1" link="" id="FHAz8kvWBEET84P1jxPl-16">
          <mxCell style="label;image=https://cdn3.iconfinder.com/data/icons/user-avatars-1/512/users-9-2-128.png;whiteSpace=wrap;html=1;rounded=0;glass=0;treeFolding=1;treeMoving=1;" parent="FHAz8kvWBEET84P1jxPl-3" vertex="1">
            <mxGeometry x="130" y="300" width="200" height="80" as="geometry" />
          </mxCell>
        </UserObject>
        <mxCell id="FHAz8kvWBEET84P1jxPl-17" value="" style="endArrow=classic;html=1;rounded=0;" parent="FHAz8kvWBEET84P1jxPl-3" target="FHAz8kvWBEET84P1jxPl-16" edge="1">
          <mxGeometry width="50" height="50" relative="1" as="geometry">
            <mxPoint x="230" y="150" as="sourcePoint" />
            <mxPoint x="280" y="100" as="targetPoint" />
          </mxGeometry>
        </mxCell>
        <UserObject label="刘建国&lt;br&gt;&lt;i style=&quot;color: rgb(128 , 128 , 128)&quot;&gt;APP研发专员&lt;/i&gt;&lt;br&gt;&lt;a href=&quot;mailto:&quot;&gt;Email&lt;/a&gt;" name="人员待定" position="老曼娥/曼咪/云台寺/塔庄星运营专员" location="法住禅林" email="" placeholders="1" link="" id="FHAz8kvWBEET84P1jxPl-36">
          <mxCell style="label;image=https://cdn3.iconfinder.com/data/icons/user-avatars-1/512/users-9-2-128.png;whiteSpace=wrap;html=1;rounded=0;glass=0;treeFolding=1;treeMoving=1;" parent="FHAz8kvWBEET84P1jxPl-3" vertex="1">
            <mxGeometry x="364" y="300" width="200" height="80" as="geometry" />
          </mxCell>
        </UserObject>
        <mxCell id="FHAz8kvWBEET84P1jxPl-38" value="" style="endArrow=classic;html=1;rounded=0;entryX=0.5;entryY=0;entryDx=0;entryDy=0;" parent="FHAz8kvWBEET84P1jxPl-3" target="FHAz8kvWBEET84P1jxPl-36" edge="1">
          <mxGeometry width="50" height="50" relative="1" as="geometry">
            <mxPoint x="464" y="120" as="sourcePoint" />
            <mxPoint x="710" y="80" as="targetPoint" />
          </mxGeometry>
        </mxCell>
        <UserObject label="周瑾盾&lt;br&gt;&lt;font color=&quot;#808080&quot;&gt;&lt;i&gt;研发&lt;/i&gt;&lt;/font&gt;&lt;br&gt;&lt;a href=&quot;mailto:&quot;&gt;Email&lt;/a&gt;" name="待定" position="帕隆美运营专员" location="帕隆美" email="" placeholders="1" link="" id="tgrZmrBPSq2vj4EP3knL-2">
          <mxCell style="label;image=https://cdn3.iconfinder.com/data/icons/user-avatars-1/512/users-10-3-128.png;whiteSpace=wrap;html=1;rounded=0;glass=0;treeFolding=1;treeMoving=1;" parent="FHAz8kvWBEET84P1jxPl-3" vertex="1">
            <mxGeometry x="900" y="180" width="180" height="80" as="geometry" />
          </mxCell>
        </UserObject>
        <mxCell id="tgrZmrBPSq2vj4EP3knL-3" value="" style="endArrow=classic;html=1;rounded=0;entryX=0.5;entryY=0;entryDx=0;entryDy=0;" parent="FHAz8kvWBEET84P1jxPl-3" target="tgrZmrBPSq2vj4EP3knL-2" edge="1">
          <mxGeometry width="50" height="50" relative="1" as="geometry">
            <mxPoint x="470" y="150" as="sourcePoint" />
            <mxPoint x="510" y="70" as="targetPoint" />
            <Array as="points">
              <mxPoint x="990" y="150" />
            </Array>
          </mxGeometry>
        </mxCell>
        <mxCell id="FHAz8kvWBEET84P1jxPl-15" value="" style="endArrow=classic;html=1;rounded=0;entryX=0.437;entryY=-0.033;entryDx=0;entryDy=0;entryPerimeter=0;exitX=0.5;exitY=1;exitDx=0;exitDy=0;" parent="1" source="FHAz8kvWBEET84P1jxPl-1" target="FHAz8kvWBEET84P1jxPl-4" edge="1">
          <mxGeometry width="50" height="50" relative="1" as="geometry">
            <mxPoint x="980" y="-40" as="sourcePoint" />
            <mxPoint x="1780" y="-40" as="targetPoint" />
          </mxGeometry>
        </mxCell>
        <mxCell id="FHAz8kvWBEET84P1jxPl-19" value="外部团队" style="swimlane;html=1;startSize=20;horizontal=1;containerType=tree;glass=0;fillColor=#d5e8d4;strokeColor=#82b366;" parent="1" vertex="1">
          <mxGeometry x="1070" y="-860" width="1090" height="500" as="geometry" />
        </mxCell>
        <UserObject label="大金塔支援团队&lt;br&gt;&lt;a href=&quot;mailto:&quot;&gt;Email&lt;/a&gt;" name="人员待定" position="老曼娥/曼咪/云台寺/塔庄星运营专员" location="法住禅林" email="" placeholders="1" link="" id="FHAz8kvWBEET84P1jxPl-31">
          <mxCell style="label;image=https://cdn3.iconfinder.com/data/icons/user-avatars-1/512/users-9-2-128.png;whiteSpace=wrap;html=1;rounded=0;glass=0;treeFolding=1;treeMoving=1;" parent="FHAz8kvWBEET84P1jxPl-19" vertex="1">
            <mxGeometry x="130" y="300" width="200" height="80" as="geometry" />
          </mxCell>
        </UserObject>
        <UserObject label="多伦多支援团队&lt;br&gt;&lt;a href=&quot;mailto:&quot;&gt;Email&lt;/a&gt;" name="人员待定" position="老曼娥/曼咪/云台寺/塔庄星运营专员" location="法住禅林" email="" placeholders="1" link="" id="tgrZmrBPSq2vj4EP3knL-1">
          <mxCell style="label;image=https://cdn3.iconfinder.com/data/icons/user-avatars-1/512/users-9-2-128.png;whiteSpace=wrap;html=1;rounded=0;glass=0;treeFolding=1;treeMoving=1;" parent="FHAz8kvWBEET84P1jxPl-19" vertex="1">
            <mxGeometry x="490" y="290" width="200" height="80" as="geometry" />
          </mxCell>
        </UserObject>
        <mxCell id="FHAz8kvWBEET84P1jxPl-39" value="" style="endArrow=classic;html=1;rounded=0;exitX=0.5;exitY=0;exitDx=0;exitDy=0;entryX=0;entryY=1;entryDx=0;entryDy=0;" parent="1" source="FHAz8kvWBEET84P1jxPl-1" target="FHAz8kvWBEET84P1jxPl-19" edge="1">
          <mxGeometry width="50" height="50" relative="1" as="geometry">
            <mxPoint x="800" y="-250" as="sourcePoint" />
            <mxPoint x="850" y="-300" as="targetPoint" />
          </mxGeometry>
        </mxCell>
        <UserObject label="%name%&lt;br&gt;&lt;i style=&quot;color: gray&quot;&gt;%position%&lt;/i&gt;&lt;br&gt;&lt;a href=&quot;mailto:%email%&quot;&gt;Email&lt;/a&gt;" name="人员待定" position="帕隆美/老曼娥/曼咪/云台寺/塔庄星运营专员" location="法住禅林" email="" placeholders="1" link="" id="RuO1ex6492-upkwhqb_F-11">
          <mxCell style="label;image=https://cdn3.iconfinder.com/data/icons/user-avatars-1/512/users-9-2-128.png;whiteSpace=wrap;html=1;rounded=0;glass=0;treeFolding=1;treeMoving=1;" parent="1" vertex="1">
            <mxGeometry x="710" y="200" width="200" height="80" as="geometry" />
          </mxCell>
        </UserObject>
        <mxCell id="RuO1ex6492-upkwhqb_F-10" value="" style="endArrow=blockThin;endFill=1;fontSize=11;edgeStyle=elbowEdgeStyle;elbow=vertical;rounded=0;exitX=0.5;exitY=1;exitDx=0;exitDy=0;" parent="1" source="dNxyNK7c78bLwvsdeMH5-12" target="RuO1ex6492-upkwhqb_F-11" edge="1">
          <mxGeometry relative="1" as="geometry">
            <mxPoint x="480" y="174" as="sourcePoint" />
            <Array as="points" />
          </mxGeometry>
        </mxCell>
      </root>
    </mxGraphModel>
  </diagram>
</mxfile>
